<?xml version="1.0" encoding="UTF-8"?>
<svg xmlns="http://www.w3.org/2000/svg" xmlns:xlink="http://www.w3.org/1999/xlink" width="854" height="480" viewBox="0 0 854 480">
<defs>
<g>
<g id="glyph-0-0">
<path d="M 3.925781 -1.910156 C 3.925781 -1.648438 3.886719 -1.386719 3.800781 -1.132812 C 3.71875 -0.878906 3.597656 -0.664062 3.445312 -0.484375 C 3.269531 -0.285156 3.066406 -0.132812 2.835938 -0.0351562 C 2.605469 0.0664062 2.347656 0.113281 2.058594 0.113281 C 1.820312 0.113281 1.59375 0.0703125 1.378906 -0.0195312 C 1.164062 -0.109375 0.972656 -0.242188 0.804688 -0.414062 C 0.640625 -0.582031 0.507812 -0.789062 0.414062 -1.035156 C 0.316406 -1.277344 0.265625 -1.554688 0.265625 -1.855469 C 0.265625 -2.441406 0.4375 -2.921875 0.777344 -3.292969 C 1.117188 -3.664062 1.566406 -3.851562 2.117188 -3.851562 C 2.640625 -3.851562 3.074219 -3.675781 3.414062 -3.320312 C 3.757812 -2.96875 3.925781 -2.496094 3.925781 -1.910156 M 3.140625 -1.902344 C 3.140625 -2.09375 3.121094 -2.292969 3.082031 -2.503906 C 3.046875 -2.714844 2.988281 -2.894531 2.914062 -3.042969 C 2.832031 -3.199219 2.722656 -3.324219 2.59375 -3.417969 C 2.460938 -3.515625 2.300781 -3.5625 2.109375 -3.5625 C 1.914062 -3.5625 1.746094 -3.515625 1.609375 -3.417969 C 1.472656 -3.320312 1.359375 -3.191406 1.273438 -3.023438 C 1.191406 -2.867188 1.132812 -2.691406 1.101562 -2.496094 C 1.070312 -2.296875 1.050781 -2.105469 1.050781 -1.921875 C 1.050781 -1.679688 1.070312 -1.453125 1.109375 -1.246094 C 1.148438 -1.042969 1.214844 -0.855469 1.300781 -0.695312 C 1.386719 -0.53125 1.492188 -0.40625 1.625 -0.3125 C 1.753906 -0.222656 1.917969 -0.175781 2.109375 -0.175781 C 2.425781 -0.175781 2.675781 -0.328125 2.863281 -0.632812 C 3.046875 -0.941406 3.140625 -1.363281 3.140625 -1.902344 M 2.824219 -5.542969 C 2.824219 -5.449219 2.804688 -5.371094 2.757812 -5.308594 C 2.714844 -5.25 2.648438 -5.183594 2.5625 -5.117188 C 2.4375 -5.015625 2.273438 -4.886719 2.066406 -4.726562 C 1.863281 -4.570312 1.644531 -4.398438 1.410156 -4.214844 L 1.265625 -4.335938 C 1.492188 -4.671875 1.652344 -4.910156 1.742188 -5.046875 C 1.832031 -5.1875 1.929688 -5.339844 2.03125 -5.507812 C 2.109375 -5.636719 2.1875 -5.722656 2.257812 -5.769531 C 2.332031 -5.816406 2.417969 -5.839844 2.515625 -5.839844 C 2.605469 -5.839844 2.679688 -5.808594 2.738281 -5.746094 C 2.796875 -5.683594 2.824219 -5.617188 2.824219 -5.542969 Z "/>
</g>
<g id="glyph-0-1">
<path d="M 2.027344 0 L 0.203125 0 L 0.203125 -0.25 C 0.257812 -0.253906 0.320312 -0.261719 0.386719 -0.269531 C 0.453125 -0.273438 0.507812 -0.285156 0.550781 -0.296875 C 0.621094 -0.320312 0.675781 -0.359375 0.710938 -0.414062 C 0.746094 -0.472656 0.761719 -0.546875 0.761719 -0.636719 L 0.761719 -4.976562 C 0.761719 -5.070312 0.742188 -5.15625 0.703125 -5.234375 C 0.664062 -5.316406 0.613281 -5.378906 0.550781 -5.421875 C 0.503906 -5.453125 0.421875 -5.480469 0.300781 -5.507812 C 0.179688 -5.53125 0.0820312 -5.546875 0.0078125 -5.550781 L 0.0078125 -5.796875 L 1.417969 -5.878906 L 1.46875 -5.820312 L 1.46875 -0.683594 C 1.46875 -0.59375 1.484375 -0.523438 1.519531 -0.464844 C 1.550781 -0.410156 1.605469 -0.363281 1.679688 -0.335938 C 1.734375 -0.308594 1.789062 -0.289062 1.84375 -0.277344 C 1.898438 -0.265625 1.960938 -0.253906 2.027344 -0.25 Z "/>
</g>
<g id="glyph-0-2">
<path d="M 3.601562 -0.882812 C 3.441406 -0.582031 3.234375 -0.34375 2.96875 -0.167969 C 2.707031 0.0117188 2.402344 0.0976562 2.0625 0.0976562 C 1.761719 0.0976562 1.496094 0.046875 1.269531 -0.0625 C 1.042969 -0.167969 0.855469 -0.3125 0.710938 -0.492188 C 0.5625 -0.675781 0.453125 -0.886719 0.382812 -1.132812 C 0.308594 -1.375 0.273438 -1.632812 0.273438 -1.902344 C 0.273438 -2.144531 0.3125 -2.382812 0.390625 -2.617188 C 0.464844 -2.851562 0.578125 -3.0625 0.730469 -3.25 C 0.875 -3.429688 1.050781 -3.574219 1.265625 -3.683594 C 1.480469 -3.796875 1.71875 -3.851562 1.984375 -3.851562 C 2.257812 -3.851562 2.492188 -3.808594 2.6875 -3.722656 C 2.882812 -3.636719 3.042969 -3.519531 3.164062 -3.367188 C 3.28125 -3.226562 3.367188 -3.058594 3.421875 -2.867188 C 3.480469 -2.675781 3.507812 -2.464844 3.507812 -2.242188 L 3.507812 -1.988281 L 1.027344 -1.988281 C 1.027344 -1.742188 1.050781 -1.519531 1.097656 -1.320312 C 1.144531 -1.121094 1.21875 -0.941406 1.320312 -0.789062 C 1.421875 -0.644531 1.550781 -0.527344 1.707031 -0.441406 C 1.867188 -0.359375 2.058594 -0.316406 2.277344 -0.316406 C 2.503906 -0.316406 2.699219 -0.367188 2.863281 -0.472656 C 3.023438 -0.578125 3.183594 -0.769531 3.335938 -1.042969 L 3.601562 -0.882812 M 2.761719 -2.308594 C 2.761719 -2.449219 2.75 -2.601562 2.726562 -2.761719 C 2.699219 -2.925781 2.660156 -3.058594 2.609375 -3.167969 C 2.550781 -3.285156 2.472656 -3.378906 2.371094 -3.453125 C 2.269531 -3.527344 2.136719 -3.5625 1.976562 -3.5625 C 1.710938 -3.5625 1.492188 -3.453125 1.316406 -3.230469 C 1.140625 -3.011719 1.042969 -2.703125 1.027344 -2.308594 Z "/>
</g>
<g id="glyph-0-3">
<path d="M 3.925781 -1.910156 C 3.925781 -1.648438 3.886719 -1.386719 3.800781 -1.132812 C 3.71875 -0.878906 3.597656 -0.664062 3.445312 -0.484375 C 3.269531 -0.285156 3.066406 -0.132812 2.835938 -0.0351562 C 2.605469 0.0664062 2.347656 0.113281 2.058594 0.113281 C 1.820312 0.113281 1.59375 0.0703125 1.378906 -0.0195312 C 1.164062 -0.109375 0.972656 -0.242188 0.804688 -0.414062 C 0.640625 -0.582031 0.507812 -0.789062 0.414062 -1.035156 C 0.316406 -1.277344 0.265625 -1.554688 0.265625 -1.855469 C 0.265625 -2.441406 0.4375 -2.921875 0.777344 -3.292969 C 1.117188 -3.664062 1.566406 -3.851562 2.117188 -3.851562 C 2.640625 -3.851562 3.074219 -3.675781 3.414062 -3.320312 C 3.757812 -2.96875 3.925781 -2.496094 3.925781 -1.910156 M 3.140625 -1.902344 C 3.140625 -2.09375 3.121094 -2.292969 3.082031 -2.503906 C 3.046875 -2.714844 2.988281 -2.894531 2.914062 -3.042969 C 2.832031 -3.199219 2.722656 -3.324219 2.59375 -3.417969 C 2.460938 -3.515625 2.300781 -3.5625 2.109375 -3.5625 C 1.914062 -3.5625 1.746094 -3.515625 1.609375 -3.417969 C 1.472656 -3.320312 1.359375 -3.191406 1.273438 -3.023438 C 1.191406 -2.867188 1.132812 -2.691406 1.101562 -2.496094 C 1.070312 -2.296875 1.050781 -2.105469 1.050781 -1.921875 C 1.050781 -1.679688 1.070312 -1.453125 1.109375 -1.246094 C 1.148438 -1.042969 1.214844 -0.855469 1.300781 -0.695312 C 1.386719 -0.53125 1.492188 -0.40625 1.625 -0.3125 C 1.753906 -0.222656 1.917969 -0.175781 2.109375 -0.175781 C 2.425781 -0.175781 2.675781 -0.328125 2.863281 -0.632812 C 3.046875 -0.941406 3.140625 -1.363281 3.140625 -1.902344 Z "/>
</g>
</g>
</defs>
<g fill="rgb(100%, 52.54902%, 18.431373%)" fill-opacity="1">
<use xlink:href="#glyph-0-0" x="30" y="27.131836"/>
<use xlink:href="#glyph-0-1" x="34" y="27.131836"/>
<use xlink:href="#glyph-0-2" x="36" y="27.131836"/>
<use xlink:href="#glyph-0-3" x="40" y="27.131836"/>
</g>
</svg>
